<svg xmlns="http://www.w3.org/2000/svg" xmlns:xlink="http://www.w3.org/1999/xlink" width="110" zoomAndPan="magnify" viewBox="0 0 82.5 30.000001" height="40" preserveAspectRatio="xMidYMid meet" version="1.0"><defs><g/><clipPath id="2e74a1f779"><path d="M 13 0.738281 L 28 0.738281 L 28 22 L 13 22 Z M 13 0.738281 " clip-rule="nonzero"/></clipPath><clipPath id="aea6c65000"><path d="M 3.992188 2 L 22 2 L 22 29 L 3.992188 29 Z M 3.992188 2 " clip-rule="nonzero"/></clipPath></defs><g clip-path="url(#2e74a1f779)"><path fill="#00bf63" d="M 25.445312 18.597656 L 20.839844 21.257812 L 18.015625 18.429688 L 16.058594 16.472656 L 21.300781 11.230469 L 18.535156 9.632812 L 13.175781 14.992188 L 13.175781 0.738281 L 15.699219 5.929688 L 25.445312 11.558594 C 28.152344 13.121094 28.152344 17.035156 25.445312 18.597656 Z M 25.445312 18.597656 " fill-opacity="1" fill-rule="nonzero"/></g><g clip-path="url(#aea6c65000)"><path fill="#00bf63" d="M 18.078125 22.851562 L 15.835938 20.609375 L 13.875 18.652344 L 13.175781 19.351562 L 13.175781 22.308594 L 10.09375 24.042969 L 10.09375 2.695312 C 7.382812 1.128906 3.996094 3.085938 3.996094 6.214844 L 3.996094 23.941406 C 3.996094 27.070312 7.382812 29.027344 10.09375 27.460938 L 16.175781 23.949219 L 21.007812 25.785156 Z M 18.078125 22.851562 " fill-opacity="1" fill-rule="nonzero"/></g><g fill="#00bf63" fill-opacity="1"><g transform="translate(31.98384, 16.383483)"><g><path d="M 8.296875 0 L 5 -4.5625 L 7.96875 -8.765625 L 5.765625 -8.765625 L 2.890625 -4.703125 L 2.890625 -8.765625 L 1 -8.765625 L 1 0 L 2.890625 0 L 2.890625 -4.265625 L 5.984375 0 Z M 8.296875 0 "/></g></g></g><g fill="#00bf63" fill-opacity="1"><g transform="translate(40.197898, 16.383483)"><g><path d="M 1 0 L 2.890625 0 L 2.890625 -8.765625 L 1 -8.765625 Z M 1 0 "/></g></g></g><g fill="#00bf63" fill-opacity="1"><g transform="translate(44.104582, 16.383483)"><g><path d="M 5.015625 0.203125 C 7.1875 0.203125 8.890625 -1.25 9.28125 -3.421875 L 7.375 -3.421875 C 7.0625 -2.3125 6.171875 -1.609375 5.015625 -1.609375 C 3.53125 -1.609375 2.421875 -2.796875 2.421875 -4.375 C 2.421875 -5.9375 3.53125 -7.140625 5.015625 -7.140625 C 6.125 -7.140625 7 -6.484375 7.359375 -5.453125 L 9.25 -5.453125 C 8.84375 -7.53125 7.140625 -8.953125 5.015625 -8.953125 C 2.4375 -8.953125 0.484375 -6.96875 0.484375 -4.375 C 0.484375 -1.78125 2.4375 0.203125 5.015625 0.203125 Z M 5.015625 0.203125 "/></g></g></g><g fill="#00bf63" fill-opacity="1"><g transform="translate(53.758604, 16.383483)"><g><path d="M 8.296875 0 L 5 -4.5625 L 7.96875 -8.765625 L 5.765625 -8.765625 L 2.890625 -4.703125 L 2.890625 -8.765625 L 1 -8.765625 L 1 0 L 2.890625 0 L 2.890625 -4.265625 L 5.984375 0 Z M 8.296875 0 "/></g></g></g><g fill="#00bf63" fill-opacity="1"><g transform="translate(61.972662, 16.383483)"><g><path d="M 2.890625 -1.75 L 2.890625 -3.546875 L 5.9375 -3.546875 L 5.9375 -5.265625 L 2.890625 -5.265625 L 2.890625 -7.015625 L 6.25 -7.015625 L 6.25 -8.765625 L 1 -8.765625 L 1 0 L 6.390625 0 L 6.390625 -1.75 Z M 2.890625 -1.75 "/></g></g></g><g fill="#00bf63" fill-opacity="1"><g transform="translate(68.972141, 16.383483)"><g><path d="M 5.8125 0 L 7.9375 0 L 6 -3.296875 C 6.96875 -3.78125 7.59375 -4.703125 7.59375 -5.859375 C 7.59375 -7.546875 6.28125 -8.765625 4.53125 -8.765625 L 1 -8.765625 L 1 0 L 2.890625 0 L 2.890625 -2.984375 L 4.109375 -2.984375 Z M 2.890625 -7.015625 L 4.40625 -7.015625 C 5.203125 -7.015625 5.671875 -6.515625 5.671875 -5.875 C 5.671875 -5.203125 5.203125 -4.734375 4.40625 -4.734375 L 2.890625 -4.734375 Z M 2.890625 -7.015625 "/></g></g></g><g fill="#ed1d24" fill-opacity="1"><g transform="translate(33.416099, 24.120639)"><g><path d="M 4.359375 0 L 5.6875 0 L 3.421875 -5.609375 L 2.265625 -5.609375 L 0.0625 0 L 1.359375 0 L 1.734375 -1.0625 L 3.96875 -1.0625 Z M 2.859375 -4.125 L 3.59375 -2.109375 L 2.109375 -2.109375 Z M 2.859375 -4.125 "/></g></g></g><g fill="#ed1d24" fill-opacity="1"><g transform="translate(39.169448, 24.120639)"><g><path d="M 4.1875 -5.609375 L 4.1875 -2.1875 L 1.734375 -5.609375 L 0.640625 -5.609375 L 0.640625 0 L 1.828125 0 L 1.828125 -3.5 L 4.375 0 L 5.390625 0 L 5.390625 -5.609375 Z M 4.1875 -5.609375 "/></g></g></g><g fill="#ed1d24" fill-opacity="1"><g transform="translate(45.195242, 24.120639)"><g><path d="M 0.640625 0 L 1.859375 0 L 1.859375 -5.609375 L 0.640625 -5.609375 Z M 0.640625 0 "/></g></g></g><g fill="#ed1d24" fill-opacity="1"><g transform="translate(47.695303, 24.120639)"><g><path d="M 7.515625 0 L 6.640625 -5.609375 L 5.421875 -5.609375 L 3.90625 -2.171875 L 2.375 -5.609375 L 1.171875 -5.609375 L 0.28125 0 L 1.515625 0 L 2.078125 -3.65625 L 3.75 -0.015625 L 4.046875 -0.015625 L 5.71875 -3.65625 L 6.28125 0 Z M 7.515625 0 "/></g></g></g><g fill="#ed1d24" fill-opacity="1"><g transform="translate(55.507999, 24.120639)"><g><path d="M 1.859375 -1.125 L 1.859375 -2.28125 L 3.796875 -2.28125 L 3.796875 -3.375 L 1.859375 -3.375 L 1.859375 -4.484375 L 4.015625 -4.484375 L 4.015625 -5.609375 L 0.640625 -5.609375 L 0.640625 0 L 4.09375 0 L 4.09375 -1.125 Z M 1.859375 -1.125 "/></g></g></g></svg>