<svg xmlns="http://www.w3.org/2000/svg" xmlns:xlink="http://www.w3.org/1999/xlink" width="48" zoomAndPan="magnify" viewBox="0 0 36 36.000001" height="48" preserveAspectRatio="xMidYMid meet" version="1.0"><defs><clipPath id="ee751ff467"><path d="M 15 1.566406 L 32 1.566406 L 32 25 L 15 25 Z M 15 1.566406 " clip-rule="nonzero"/></clipPath><clipPath id="768ef22dea"><path d="M 5.496094 3 L 25 3 L 25 33 L 5.496094 33 Z M 5.496094 3 " clip-rule="nonzero"/></clipPath><clipPath id="3f8d6d21bf"><path d="M 5.496094 14.886719 L 10.75 14.886719 L 10.75 20.140625 L 5.496094 20.140625 Z M 5.496094 14.886719 " clip-rule="nonzero"/></clipPath><clipPath id="da3cf3c5b2"><path d="M 8.125 14.886719 C 6.671875 14.886719 5.496094 16.0625 5.496094 17.511719 C 5.496094 18.964844 6.671875 20.140625 8.125 20.140625 C 9.574219 20.140625 10.75 18.964844 10.75 17.511719 C 10.75 16.0625 9.574219 14.886719 8.125 14.886719 Z M 8.125 14.886719 " clip-rule="nonzero"/></clipPath></defs><g clip-path="url(#ee751ff467)"><path fill="#00bf63" d="M 29.675781 21.699219 L 24.488281 24.695312 L 19.097656 19.304688 L 25.007812 13.390625 L 21.890625 11.59375 L 15.851562 17.632812 L 15.851562 1.566406 L 18.691406 7.417969 L 29.675781 13.761719 C 32.734375 15.527344 32.734375 19.933594 29.675781 21.699219 Z M 29.675781 21.699219 " fill-opacity="1" fill-rule="nonzero"/></g><g clip-path="url(#768ef22dea)"><path fill="#00bf63" d="M 21.375 26.496094 L 18.84375 23.96875 L 16.640625 21.761719 L 15.851562 22.550781 L 15.851562 25.878906 L 12.375 27.839844 L 12.375 3.773438 C 9.320312 2.007812 5.5 4.214844 5.5 7.742188 L 5.5 27.722656 C 5.5 31.25 9.320312 33.453125 12.375 31.691406 L 19.230469 27.734375 L 24.675781 29.800781 Z M 21.375 26.496094 " fill-opacity="1" fill-rule="nonzero"/></g><g clip-path="url(#3f8d6d21bf)"><g clip-path="url(#da3cf3c5b2)"><path fill="#00bf63" d="M 5.496094 14.886719 L 10.75 14.886719 L 10.75 20.140625 L 5.496094 20.140625 Z M 5.496094 14.886719 " fill-opacity="1" fill-rule="nonzero"/></g></g></svg>