<svg xmlns="http://www.w3.org/2000/svg" xmlns:xlink="http://www.w3.org/1999/xlink" viewBox="0,0,256,256" width="120px" height="120px"><g fill="#00bf63" fill-rule="nonzero" stroke="none" stroke-width="1" stroke-linecap="butt" stroke-linejoin="miter" stroke-miterlimit="10" stroke-dasharray="" stroke-dashoffset="0" font-family="none" font-weight="none" font-size="none" text-anchor="none" style="mix-blend-mode: normal"><g transform="scale(10.66667,10.66667)"><path d="M10,2c-4.4094,0 -8,3.59061 -8,8c0,4.40939 3.5906,8 8,8c1.92974,0 3.63578,-0.77488 5.01953,-1.91797l5.69922,5.69922c0.18979,0.18983 0.46644,0.26399 0.72573,0.19452c0.25929,-0.06947 0.46182,-0.27199 0.53129,-0.53129c0.06947,-0.25929 -0.00469,-0.53594 -0.19452,-0.72573l-5.69922,-5.69922c1.14309,-1.38375 1.91797,-3.08979 1.91797,-5.01953c0,-4.40939 -3.5906,-8 -8,-8zM10,3.5c3.59874,0 6.5,2.90127 6.5,6.5c0,3.59873 -2.90126,6.5 -6.5,6.5c-3.59874,0 -6.5,-2.90127 -6.5,-6.5c0,-3.59873 2.90126,-6.5 6.5,-6.5z"></path></g></g></svg>